<?xml version="1.0" encoding="utf-8"?>
<!-- Generator: Adobe Illustrator 26.0.0, SVG Export Plug-In . SVG Version: 6.00 Build 0)  -->
<svg version="1.1" id="Capa_1" xmlns="http://www.w3.org/2000/svg" xmlns:xlink="http://www.w3.org/1999/xlink" x="0px" y="0px"
	 viewBox="0 0 631.24 194.35" style="enable-background:new 0 0 631.24 194.35;" xml:space="preserve">
<style type="text/css">
	.st0{fill:#FFDE00;}
	.st1{font-family:'MyriadPro-Bold';}
	.st2{font-size:82.2448px;}
</style>
<rect class="st0" width="631.24" height="194.35"/>
<path d="M140.39,135.61c-10.57-20.95-20.88-41.37-31.4-62.23c-10.48,20.76-20.8,41.22-31.4,62.23
	c-14.22-28.21-28.21-55.94-42.41-84.1c1.19-0.17,1.82-0.34,2.44-0.34c5.7-0.02,11.4-0.03,17.09,0c2.32,0.01,2.46,0.34,1.27,2.73
	c-1.15,2.31-2.26,4.65-3.48,6.91c-0.59,1.09-0.66,1.93-0.07,3.1C60.61,80,68.72,96.13,76.86,112.25c0.19,0.37,0.43,0.71,0.8,1.32
	c10.42-20.66,20.72-41.09,31.32-62.09c10.55,20.9,20.87,41.36,31.32,62.07c0.46-0.74,0.82-1.25,1.1-1.81
	c8-15.85,15.97-31.72,24-47.56c0.65-1.29,0.72-2.24,0.01-3.51c-1.25-2.24-2.35-4.59-3.49-6.9c-0.31-0.63-0.53-1.31-0.95-2.35
	c7.31,0,14.25,0,21.86,0C168.61,79.63,154.62,107.37,140.39,135.61z"/>
<path d="M579.54,149.88c-1.31-2.26-2.41-4.15-3.5-6.06c-8.46-14.86-16.9-29.73-25.41-44.56c-0.9-1.56-0.96-2.72-0.01-4.32
	c9.46-15.95,18.83-31.96,28.23-47.94c0.41-0.7,0.86-1.37,1.58-2.53c2.16,3.82,4.13,7.2,6,10.64c1.49,2.72,2.65,5.65,4.36,8.21
	c1.63,2.45,1.61,4.4-0.1,6.74c-1.59,2.18-2.81,4.62-4.49,7.43c-2.08-3.61-3.91-6.77-5.89-10.18c-0.59,0.89-1.02,1.49-1.39,2.12
	c-5.21,8.84-10.43,17.67-15.58,26.55c-0.4,0.68-0.74,1.86-0.43,2.43c5.47,9.82,11.05,19.58,16.77,29.64
	c0.53-0.72,0.95-1.2,1.28-1.75c5.25-8.9,10.46-17.83,15.76-26.71c0.77-1.29,0.82-2.24,0.02-3.52c-1.5-2.38-2.85-4.85-4.17-7.33
	c-0.31-0.59-0.54-1.57-0.27-2.07c1.78-3.25,3.71-6.41,5.75-9.88c0.56,0.73,0.96,1.15,1.23,1.63c3.4,5.94,6.75,11.9,10.19,17.81
	c0.7,1.21,0.68,2.16-0.02,3.35c-9.64,16.29-19.23,32.6-28.85,48.9C580.4,148.86,580.09,149.18,579.54,149.88z"/>
<g>
	<g>
		<path d="M379.43,110.71c-2.59,8.71-9.03,15.31-20.64,15.31c-15.78,0-24.1-12.56-24.1-28.02c0-14.83,8.16-28.34,24.17-28.34
			c11.85,0,18.84,6.59,20.64,15.78h-4.24c-2.51-7.14-7.14-11.85-16.64-11.85c-13.66,0-19.39,12.48-19.39,24.33
			c0,11.77,5.65,24.18,19.7,24.18c8.95,0,13.5-4.63,16.25-11.38H379.43z"/>
		<path d="M436.65,97.52c0,14.99-8.01,28.65-24.96,28.65c-15.46,0-24.49-12.48-24.49-28.26c0-15.54,8.71-28.26,25.04-28.26
			C427.31,69.66,436.65,81.51,436.65,97.52z M391.75,97.68c0,12.64,6.99,24.57,20.17,24.57c14.21,0,20.17-11.62,20.17-24.65
			c0-12.79-6.75-24.02-20.01-24.02C397.96,73.58,391.75,85.28,391.75,97.68z"/>
		<path d="M453.06,99.72v25.67h-4.32V70.44h19.7c10.83,0,16.56,5.81,16.56,14.44c0,6.99-4.16,11.54-10.28,12.87
			c5.65,1.33,9.42,5.02,9.42,14.36v2.12c0,3.85-0.31,9.03,0.71,11.15h-4.32c-1.02-2.35-0.79-6.75-0.79-11.46v-1.41
			c0-9.03-2.67-12.79-13.19-12.79H453.06z M453.06,95.79h13.27c9.65,0,14.13-3.61,14.13-10.83c0-6.75-4.4-10.6-12.95-10.6h-14.44
			V95.79z"/>
		<path d="M530.29,98.38h-28.02v23.08h30.69l-0.63,3.92h-34.3V70.44h33.67v3.92h-29.43v20.09h28.02V98.38z"/>
	</g>
</g>
<text transform="matrix(1 0 0 1 176.4395 125.8762)" class="st1 st2">DEV</text>
</svg>
